<svg width="27" height="26" viewBox="0 0 27 26" fill="none" xmlns="http://www.w3.org/2000/svg">
<path d="M0.5 18.85C2.9215 17.7625 5.3285 16.675 7.75 16.1965V4.35C7.75 3.19631 8.2083 2.08987 9.02409 1.27409C9.83987 0.458302 10.9463 0 12.1 0C13.9995 0 15.609 1.2035 16.2035 2.9H12.1C11.7154 2.9 11.3466 3.05277 11.0747 3.3247C10.8028 3.59662 10.65 3.96544 10.65 4.35V5.8H17.9V4.35C17.9 3.19631 18.3583 2.08987 19.1741 1.27409C19.9899 0.458302 21.0963 0 22.25 0C24.1495 0 25.759 1.2035 26.3535 2.9H22.25C21.8654 2.9 21.4966 3.05277 21.2247 3.3247C20.9528 3.59662 20.8 3.96544 20.8 4.35V18.763C23.7 18.299 26.6 15.95 29.5 15.95V18.85C26.281 18.85 23.062 21.75 19.8285 21.75C16.6095 21.75 13.3905 18.85 10.1715 18.85C6.938 18.85 3.719 20.3 0.5 21.75V18.85ZM17.9 8.7H10.65V11.6H17.9V8.7ZM17.9 14.5H10.65V15.95C13.0715 16.182 15.4785 17.8495 17.9 18.5455V14.5ZM0.5 24.65C3.719 23.2 6.938 21.75 10.1715 21.75C13.3905 21.75 16.6095 24.65 19.8285 24.65C23.062 24.65 26.281 21.75 29.5 21.75V24.65C26.281 24.65 23.062 27.55 19.8285 27.55C16.6095 27.55 13.3905 24.65 10.1715 24.65C6.938 24.65 3.719 26.1 0.5 27.55V24.65Z" fill="#5B616D"/>
</svg>
